<svg xmlns="http://www.w3.org/2000/svg" version="1.1" xmlns:xlink="http://www.w3.org/1999/xlink" xmlns:svgjs="http://svgjs.com/svgjs" width="84" height="72"><svg width="84" height="72" viewBox="0 0 84 72" fill="none" xmlns="http://www.w3.org/2000/svg">
<path d="M55.4342 0.0648029C52.4786 0.26601 46.5672 0.982809 45.9935 1.19659C45.0372 1.5487 44.8286 2.00142 44.8286 3.78713C44.8286 4.67998 44.8981 5.50996 45.0024 5.63571C45.0894 5.76147 45.4197 5.97525 45.7327 6.101C46.0456 6.23933 46.9323 6.78008 47.6973 7.29567C49.1925 8.31428 49.5403 8.42746 50.4617 8.27655C51.0355 8.18852 53.1566 7.18249 53.174 7.00643C53.174 6.95613 52.8784 6.89325 52.5307 6.85553C51.87 6.7675 51.0877 6.46569 51.0877 6.27706C51.0877 6.17646 52.8784 6.54114 53.8347 6.84295C54.9648 7.19506 56.4426 7.03158 58.3377 6.36509L59.4157 5.98782L60.2502 6.35251C61.0152 6.69205 61.2587 6.94356 63.4841 9.7353C64.7881 11.3827 66.1964 13.1935 66.6136 13.7343C67.4656 14.8786 68.8217 16.0356 69.6389 16.2871C70.5777 16.5638 72.4902 16.4883 74.0028 16.1236C74.7331 15.9476 75.4459 15.7463 75.5676 15.6709C75.7241 15.5703 75.8458 15.5703 75.9849 15.6709C76.1413 15.7841 75.9327 15.8973 75.1677 16.1362C72.9075 16.8656 70.456 17.0165 69.0825 16.5009C68.7 16.3625 68.1089 15.9727 67.7785 15.6457L67.17 15.0421L65.866 15.1176C63.658 15.2308 61.5542 15.8344 59.5896 16.9284L58.4768 17.5321L57.6945 17.3686C57.2598 17.2806 56.2514 17.1422 55.4342 17.0793C54.1303 16.9662 53.9042 16.9787 53.5739 17.1799C53.0001 17.5069 42.8813 26.272 42.9856 26.3474C43.0378 26.3852 45.1937 26.3474 47.7842 26.2594C50.3922 26.1839 52.5481 26.1336 52.5829 26.1588C52.6176 26.1965 48.6536 29.944 43.7506 34.5089C30.6935 46.6693 27.4596 49.6874 23.1304 53.7241C20.2617 56.4152 19.3055 57.3836 19.4793 57.459C19.8792 57.6351 23.2695 58.1758 25.3559 58.4022C28.1725 58.6914 34.6402 58.5908 37.6132 58.2135C41.0731 57.7608 45.0372 56.9686 47.2974 56.2643C47.9929 56.0506 47.9929 56.038 48.3058 54.7553C48.8796 52.3031 47.8712 49.5113 45.8022 47.8011C45.1589 47.2855 45.0024 47.0591 45.0024 46.6693L44.985 46.1914L44.4113 46.6819C43.6463 47.3232 42.0468 49.197 40.169 51.6114C39.3519 52.6678 38.639 53.5229 38.6217 53.4978C38.5869 53.4726 38.8651 52.869 39.2649 52.1522C40.9862 48.9958 44.0288 45.9525 48.8622 42.5446C51.3658 40.7589 53.7478 39.3127 55.7298 38.3444C57.9379 37.288 60.285 35.3263 62.0236 33.1256C62.893 32.0189 64.0405 30.1829 63.9188 30.0823C63.884 30.0572 63.119 30.1578 62.2149 30.2835C61.3108 30.4219 60.0242 30.5225 59.3462 30.5225L58.1291 30.5099L59.8851 30.271C66.8744 29.3278 73.1509 26.4229 78.0712 21.8203C79.6534 20.3238 80.8183 18.9405 82.5569 16.4631C83.8783 14.602 84 14.3379 84 13.6966C84 13.3067 83.8609 12.7408 83.687 12.4264C82.8003 10.8168 79.636 8.11307 76.4021 6.21418C73.1161 4.27757 67.9002 1.98884 65.0663 1.24689C63.3276 0.781602 60.1807 0.278585 58.0074 0.115105C57.0686 0.0396521 56.2514 -0.0106496 56.1818 0.00192585C56.1123 0.00192585 55.7646 0.0396521 55.4342 0.0648029Z" fill="#7977F8"></path>
<path d="M33.8753 6.42037C30.7632 6.97369 27.4424 8.78455 25.669 10.9098C24.9214 11.8026 24.8518 12.2428 25.356 13.035C25.5473 13.3368 25.7038 13.7267 25.7038 13.8902C25.7038 14.3177 24.6606 15.6256 24.1912 15.7765C23.9825 15.8519 23.7565 16.0531 23.687 16.2292C23.6 16.4807 23.7217 16.6568 24.2781 17.0969L24.9909 17.6502L24.7301 18.2538C24.4346 18.9581 24.3998 20.4923 24.678 21.0456C24.904 21.5109 25.5125 21.8253 26.1732 21.8253C26.434 21.8253 27.8423 21.536 29.3027 21.1839C31.25 20.7144 32.6525 20.7438 33.5102 21.2719C34.2231 21.6995 34.2231 22.2402 33.5102 23.2086C32.6931 24.3278 32.4149 24.4661 30.3981 24.7176C26.9208 25.1703 24.5737 25.9374 22.835 27.1698C20.4183 28.8926 19.9663 31.1939 21.7571 32.6024C22.4351 33.1306 22.4351 33.1431 22.0005 33.1431C21.3746 33.1431 20.5574 32.6024 20.2097 31.9485C20.0011 31.5335 19.9489 31.1436 20.0011 30.4394C20.088 29.5088 20.088 29.4963 19.6359 29.3957C18.8536 29.2448 15.5849 29.3328 14.3331 29.5466C12.1424 29.9238 10.8211 30.628 9.6388 32.0616C9.30847 32.4641 8.94335 33.118 8.82165 33.5078C8.59563 34.2875 8.2479 34.7276 8.42176 34.0234C8.66517 33.03 9.08244 32.1497 9.72574 31.2945L10.4038 30.3765L10.1604 29.1441C10.0213 28.4777 9.65619 27.4465 9.36062 26.868C8.49131 25.1703 8.10881 23.0451 8.42176 21.6618C8.52608 21.2216 8.56085 21.1965 8.90858 21.36C9.58665 21.6869 10.5777 21.8504 11.2383 21.7624C11.6904 21.6995 12.1424 21.4857 12.7683 21.033C13.2552 20.6683 13.8985 20.2785 14.194 20.1653C15.046 19.8383 15.4806 19.0587 15.5849 17.7257C15.6197 17.0843 15.6023 16.2418 15.5328 15.8394C15.4285 15.1854 15.3241 15.0345 14.6808 14.5944C13.9506 14.0788 11.7078 13.1482 11.2036 13.1482C11.0645 13.1482 9.83875 13.6839 9.43886 14.0738C7.1004 15.2458 7.12648 15.2634 5.63126 16.0682C2.9016 17.527 3.22325 18.4915 3.34496 19.3466C3.46666 20.2143 3.20587 22.5282 2.82337 24.0624C2.66689 24.6409 2.09314 26.1499 1.53678 27.4201C0.215418 30.4394 -0.0975358 31.7473 0.0241685 33.5581C0.0763274 34.3504 0.267577 35.4067 0.476213 35.9726C0.928257 37.2176 2.00621 38.8272 2.87553 39.5189L3.53621 40.047L5.57041 39.7452C6.70052 39.5817 8.16097 39.3177 8.83903 39.1668L10.0387 38.9027L11.0123 39.1668C13.0987 39.7327 16.9411 39.4434 20.54 38.4374L21.0095 38.2991L20.5053 37.6451C19.8967 36.878 19.6881 36.1235 19.8793 35.4444L20.0184 34.9666L20.2445 35.7965C20.54 36.9409 21.1659 37.7709 22.4873 38.7895L23.6174 39.6446V41.2669C23.6174 42.9771 23.9477 44.2598 24.6606 45.4293C25.3039 46.4857 24.9909 48.9001 23.8782 51.3775C23.4609 52.3081 23.0784 53.3015 23.0089 53.5782C22.8698 54.207 22.4351 54.7351 38.7261 34.6019C40.8473 31.9862 42.5511 29.8232 42.5163 29.7981C42.4816 29.7729 40.0127 30.0747 37.0223 30.452C34.0492 30.8418 31.563 31.1311 31.5108 31.0933C31.4586 31.0682 34.5186 27.8363 38.2915 23.9254L45.1765 16.8328L44.707 16.0909C44.0637 15.0723 43.9942 14.1668 44.481 12.8716C44.933 11.6517 44.8809 10.8343 44.2897 9.6774C43.8029 8.73425 42.0643 7.43898 40.6386 6.96111C38.6566 6.29461 35.8748 6.06826 33.8753 6.42037Z" fill="#8DD752"></path>
<path d="M8.2827 59.6897C10.4143 59.6897 12.0103 59.9978 13.0726 60.614C14.1349 61.2302 14.6652 62.1055 14.6652 63.241C14.6652 63.7503 14.5557 64.2395 14.3366 64.7073C14.1176 65.1764 13.7611 65.5939 13.2674 65.9598C12.7736 66.327 12.1181 66.6163 11.301 66.8301C10.4838 67.0438 9.47888 67.1507 8.2827 67.1507H7.00655V70.8554H2.4635V59.6885H8.2827V59.6897ZM8.17839 62.1269H7.00481V64.6935H7.90194C8.29313 64.6935 8.65651 64.6495 8.9938 64.5602C9.3311 64.4709 9.60059 64.3263 9.80401 64.1251C10.0074 63.9239 10.1083 63.6548 10.1083 63.319C10.1083 62.9832 9.95179 62.6814 9.6371 62.4601C9.32241 62.2388 8.83559 62.1281 8.17665 62.1281L8.17839 62.1269Z" fill="#46393A"></path>
<path d="M20.5141 59.6899C22.0388 59.6899 23.308 59.8132 24.3199 60.0609C25.3318 60.3074 26.0933 60.6759 26.6027 61.165C27.1122 61.6542 27.3677 62.2629 27.3677 62.991C27.3677 63.4437 27.253 63.8562 27.0235 64.2284C26.794 64.6006 26.4654 64.9326 26.0394 65.2256C25.6135 65.5186 25.1058 65.7739 24.5164 65.9927L29.4159 70.8582H24.2643L20.7001 66.795H19.5509V70.8582H15.0078V59.6912H20.5158L20.5141 59.6899ZM20.4445 61.9736H19.5474V64.5252H20.3976C21.0948 64.5252 21.6668 64.4233 22.1101 64.2196C22.5552 64.0159 22.7778 63.6525 22.7778 63.1268C22.7778 62.7659 22.5935 62.4829 22.2266 62.2792C21.858 62.0755 21.2651 61.9736 20.4445 61.9736Z" fill="#46393A"></path>
<path d="M29.7268 70.8569V59.6899H34.2925V70.8569H29.7268Z" fill="#46393A"></path>
<path d="M42.4695 70.8569L39.0304 62.8137H38.9261C38.9574 63.0224 38.9887 63.3054 39.0235 63.6613C39.0583 64.0171 39.0913 64.4019 39.1208 64.8144C39.1521 65.2269 39.166 65.6243 39.166 66.0066V70.8569H35.1411V59.6899H41.1898L44.6966 67.6187H44.7888L48.2278 59.6899H54.2887V70.8569H50.1142V65.9613C50.1142 65.6105 50.1229 65.2319 50.1438 64.827C50.1629 64.4221 50.1855 64.0398 50.2133 63.6814C50.2394 63.3217 50.2655 63.0388 50.2881 62.83H50.1855L46.7934 70.8582H42.4695V70.8569Z" fill="#46393A"></path>
<path d="M65.2887 70.8569H55.3073V59.6899H65.2887V62.1107H59.8486V63.8675H64.8854V66.2883H59.8486V68.3959H65.2887V70.8557V70.8569Z" fill="#46393A"></path>
<path d="M68.5317 35.8229L80.217 37.5608L79.9701 41.712L77.4352 41.3347L77.5708 39.0661L75.3419 38.7392L75.2167 40.838L72.6679 40.4507L72.7931 38.3418L68.4204 37.7042L68.5317 35.8217V35.8229Z" fill="#46393A"></path>
<path d="M68.5317 41.0017L80.217 42.7396L80.1058 44.6222L68.4204 42.8842L68.5334 41.0017H68.5317Z" fill="#46393A"></path>
<path d="M68.4848 45.5665L77.59 46.902L77.6804 45.3754L80.2623 45.7627L79.9684 50.7136L77.3883 50.3162L77.4805 48.7846L68.3752 47.4491L68.4865 45.5665H68.4848Z" fill="#46393A"></path>
<path d="M68.6586 49.4524L80.344 51.1903L80.2136 53.381L72.2159 54.5907L72.2124 54.6335C72.4471 54.6548 72.7462 54.6838 73.1095 54.7228C73.4729 54.7617 73.8415 54.8032 74.2153 54.8472C74.5891 54.8925 74.9125 54.934 75.1837 54.9717L80.0745 55.7074L79.9754 57.3837L68.29 55.6458L68.4204 53.4551L76.7815 52.2391V52.2001C76.6772 52.1938 76.4946 52.1813 76.2339 52.1599C75.9748 52.1385 75.6792 52.1108 75.3471 52.0781C75.0168 52.0454 74.6813 52.0102 74.3422 51.9725C74.0032 51.9348 73.7007 51.8945 73.4347 51.8543L68.5595 51.1287L68.6586 49.4537V49.4524Z" fill="#46393A"></path>
<path d="M68.5992 56.4893L80.2845 58.2272L80.0359 62.4072L77.501 62.04L77.6366 59.7438L75.7989 59.4784L75.6719 61.6163L73.1405 61.2151L73.2674 59.0773L71.0611 58.7554L70.9255 61.0529L68.3523 60.6706L68.6009 56.4905L68.5992 56.4893Z" fill="#46393A"></path>
<path d="M68.3091 63.2601C68.3299 62.9093 68.4169 62.5785 68.5699 62.2641C68.7229 61.951 68.9297 61.6832 69.1905 61.4606L72.0089 61.5209C71.7307 61.7724 71.4786 62.0705 71.2543 62.4138C71.03 62.7584 70.9083 63.0765 70.8909 63.3733C70.884 63.4915 70.8996 63.5971 70.9361 63.6877C70.9726 63.7782 71.03 63.8549 71.1083 63.9178C71.1848 63.9807 71.2839 64.0285 71.4021 64.0612C71.5203 64.0939 71.6559 64.1115 71.8072 64.1152C72.0054 64.119 72.1932 64.0876 72.3688 64.0209C72.5444 63.9543 72.72 63.8625 72.8973 63.7455C73.0747 63.6286 73.2659 63.5003 73.4728 63.3607C73.7805 63.152 74.1004 62.9696 74.4325 62.8149C74.7646 62.659 75.1262 62.5421 75.514 62.4616C75.9034 62.3811 76.3363 62.3471 76.8144 62.3572C77.3465 62.3685 77.8315 62.4389 78.2697 62.566C78.7096 62.6942 79.0868 62.8715 79.4033 63.0991C79.7214 63.3255 79.9596 63.5946 80.1213 63.9052C80.283 64.2158 80.3526 64.5566 80.33 64.9289C80.3074 65.3074 80.2117 65.6733 80.0396 66.0242C79.8675 66.375 79.6362 66.6945 79.3459 66.9812L76.9935 66.2807C77.1952 66.0607 77.3743 65.828 77.5308 65.5853C77.6872 65.3426 77.7724 65.1125 77.7863 64.8937C77.795 64.7591 77.7724 64.6484 77.722 64.5642C77.6699 64.4799 77.602 64.4133 77.5151 64.3668C77.4282 64.3202 77.336 64.2863 77.2352 64.2674C77.1344 64.2473 77.0353 64.236 76.9396 64.2347C76.7727 64.2309 76.611 64.2498 76.4563 64.29C76.2998 64.3303 76.126 64.4045 75.9347 64.5126C75.7435 64.6208 75.5122 64.7755 75.2427 64.9754C74.9054 65.2282 74.5647 65.4344 74.2221 65.5929C73.8796 65.75 73.5215 65.8645 73.1494 65.9336C72.7773 66.0028 72.3705 66.033 71.9306 66.0229C71.3447 66.0104 70.8231 65.9399 70.3624 65.8117C69.9016 65.6834 69.5157 65.5011 69.201 65.2659C68.8863 65.0307 68.6533 64.7453 68.502 64.4095C68.3508 64.0737 68.2865 63.6915 68.3125 63.2614L68.3091 63.2601Z" fill="#46393A"></path>
<path d="M67.7612 68.2801C67.7821 67.9293 67.869 67.5985 68.022 67.2842C68.175 66.971 68.3819 66.7032 68.6427 66.4806L71.461 66.541C71.1829 66.7912 70.9308 67.0905 70.7065 67.4338C70.4822 67.7784 70.3605 68.0965 70.3431 68.3921C70.3362 68.5103 70.3518 68.6159 70.3883 68.7064C70.4248 68.797 70.4839 68.8737 70.5604 68.9366C70.6369 68.9995 70.736 69.0472 70.8543 69.0799C70.9725 69.1126 71.1081 69.1302 71.2576 69.134C71.4558 69.1378 71.6436 69.1063 71.8192 69.0397C71.9948 68.973 72.1704 68.8812 72.3478 68.7643C72.5251 68.6473 72.7163 68.5191 72.9232 68.3795C73.231 68.1707 73.5509 67.9884 73.883 67.8337C74.215 67.6778 74.5749 67.5608 74.9644 67.4803C75.3538 67.3999 75.7868 67.3659 76.2649 67.376C76.7969 67.3873 77.282 67.4564 77.7201 67.5847C78.16 67.713 78.5373 67.8903 78.8537 68.1179C79.1719 68.3443 79.4101 68.6134 79.5718 68.924C79.7335 69.2346 79.803 69.5754 79.7804 69.9476C79.7578 70.3262 79.6622 70.6921 79.4901 71.043C79.3179 71.3938 79.0867 71.7132 78.7963 71.9999L76.444 71.2995C76.6456 71.0794 76.8247 70.8468 76.9812 70.6041C77.1377 70.3614 77.2229 70.1312 77.2368 69.9124C77.2455 69.7779 77.2229 69.6672 77.1725 69.583C77.1203 69.4987 77.0525 69.4333 76.9656 69.3855C76.8786 69.3377 76.7865 69.305 76.6856 69.2862C76.5848 69.266 76.4857 69.2547 76.3901 69.2535C76.2232 69.2497 76.0632 69.2686 75.9067 69.3088C75.7503 69.3491 75.5764 69.4232 75.3851 69.5314C75.1939 69.6395 74.9627 69.7942 74.6932 69.9942C74.3559 70.2469 74.0151 70.4532 73.6726 70.6104C73.3301 70.7688 72.9719 70.882 72.5999 70.9524C72.2278 71.0216 71.8209 71.0518 71.3811 71.0417C70.7952 71.0291 70.2736 70.9587 69.8128 70.8304C69.3521 70.7022 68.9661 70.5198 68.6514 70.2847C68.3367 70.0495 68.1055 69.764 67.9525 69.4283C67.8012 69.0925 67.7369 68.7102 67.763 68.2801H67.7612Z" fill="#8DD752"></path>
</svg><style>@media (prefers-color-scheme: light) { :root { filter: none; } }
</style></svg>