<svg width="84" height="72" viewBox="0 0 84 72" fill="none" xmlns="http://www.w3.org/2000/svg">
<path d="M55.4342 0.0648029C52.4786 0.26601 46.5672 0.982809 45.9935 1.19659C45.0372 1.5487 44.8286 2.00142 44.8286 3.78713C44.8286 4.67998 44.8981 5.50996 45.0024 5.63571C45.0894 5.76147 45.4197 5.97525 45.7327 6.101C46.0456 6.23933 46.9323 6.78008 47.6973 7.29567C49.1925 8.31428 49.5403 8.42746 50.4618 8.27655C51.0355 8.18852 53.1566 7.18249 53.174 7.00643C53.174 6.95613 52.8785 6.89325 52.5307 6.85553C51.87 6.7675 51.0877 6.46569 51.0877 6.27706C51.0877 6.17646 52.8785 6.54114 53.8347 6.84295C54.9648 7.19506 56.4426 7.03158 58.3378 6.36509L59.4157 5.98782L60.2503 6.35251C61.0153 6.69205 61.2587 6.94356 63.4841 9.7353C64.7881 11.3827 66.1964 13.1935 66.6137 13.7343C67.4656 14.8786 68.8217 16.0356 69.6389 16.2871C70.5777 16.5638 72.4902 16.4883 74.0028 16.1236C74.7331 15.9476 75.4459 15.7463 75.5676 15.6709C75.7241 15.5703 75.8458 15.5703 75.9849 15.6709C76.1414 15.7841 75.9327 15.8973 75.1677 16.1362C72.9075 16.8656 70.456 17.0165 69.0825 16.5009C68.7 16.3625 68.1089 15.9727 67.7785 15.6457L67.17 15.0421L65.866 15.1176C63.658 15.2308 61.5542 15.8344 59.5896 16.9284L58.4768 17.5321L57.6945 17.3686C57.2598 17.2806 56.2514 17.1422 55.4342 17.0793C54.1303 16.9662 53.9042 16.9787 53.5739 17.1799C53.0002 17.5069 42.8813 26.272 42.9856 26.3474C43.0378 26.3852 45.1937 26.3474 47.7843 26.2594C50.3922 26.1839 52.5481 26.1336 52.5829 26.1588C52.6177 26.1965 48.6536 29.944 43.7506 34.5089C30.6935 46.6693 27.4596 49.6874 23.1304 53.7241C20.2617 56.4152 19.3055 57.3836 19.4793 57.459C19.8792 57.6351 23.2695 58.1758 25.3559 58.4022C28.1725 58.6914 34.6402 58.5908 37.6133 58.2135C41.0731 57.7608 45.0372 56.9686 47.2974 56.2643C47.9929 56.0506 47.9929 56.038 48.3058 54.7553C48.8796 52.3031 47.8712 49.5113 45.8022 47.8011C45.1589 47.2855 45.0024 47.0591 45.0024 46.6693L44.9851 46.1914L44.4113 46.6819C43.6463 47.3232 42.0468 49.197 40.169 51.6114C39.3519 52.6678 38.639 53.5229 38.6217 53.4978C38.5869 53.4726 38.8651 52.869 39.265 52.1522C40.9862 48.9958 44.0288 45.9525 48.8622 42.5446C51.3658 40.7589 53.7478 39.3127 55.7298 38.3444C57.9379 37.288 60.285 35.3263 62.0237 33.1256C62.893 32.0189 64.0405 30.1829 63.9188 30.0823C63.884 30.0572 63.119 30.1578 62.2149 30.2835C61.3108 30.4219 60.0242 30.5225 59.3462 30.5225L58.1291 30.5099L59.8851 30.271C66.8744 29.3278 73.1509 26.4229 78.0712 21.8203C79.6534 20.3238 80.8183 18.9405 82.5569 16.4631C83.8783 14.602 84 14.3379 84 13.6966C84 13.3067 83.8609 12.7408 83.687 12.4264C82.8003 10.8168 79.636 8.11307 76.4021 6.21418C73.1161 4.27757 67.9002 1.98884 65.0663 1.24689C63.3276 0.781602 60.1807 0.278585 58.0074 0.115105C57.0686 0.0396521 56.2514 -0.0106496 56.1819 0.00192585C56.1123 0.00192585 55.7646 0.0396521 55.4342 0.0648029Z" fill="#8DD752"/>
<path d="M33.8753 6.42025C30.7632 6.97357 27.4424 8.78443 25.669 10.9097C24.9214 11.8025 24.8518 12.2427 25.356 13.0349C25.5473 13.3367 25.7038 13.7266 25.7038 13.89C25.7038 14.3176 24.6606 15.6255 24.1912 15.7764C23.9825 15.8518 23.7565 16.053 23.687 16.2291C23.6 16.4806 23.7217 16.6566 24.2781 17.0968L24.9909 17.6501L24.7301 18.2537C24.4346 18.9579 24.3998 20.4921 24.678 21.0455C24.904 21.5107 25.5125 21.8251 26.1732 21.8251C26.434 21.8251 27.8423 21.5359 29.3027 21.1838C31.25 20.7143 32.6525 20.7436 33.5102 21.2718C34.2231 21.6994 34.2231 22.2401 33.5102 23.2084C32.6931 24.3276 32.4149 24.466 30.3981 24.7175C26.9208 25.1702 24.5737 25.9373 22.835 27.1697C20.4183 28.8925 19.9663 31.1938 21.7571 32.6023C22.4351 33.1304 22.4351 33.143 22.0005 33.143C21.3746 33.143 20.5574 32.6023 20.2097 31.9483C20.0011 31.5334 19.9489 31.1435 20.0011 30.4393C20.088 29.5087 20.088 29.4961 19.6359 29.3955C18.8536 29.2446 15.5849 29.3327 14.3331 29.5464C12.1424 29.9237 10.8211 30.6279 9.6388 32.0615C9.30847 32.4639 8.94335 33.1179 8.82165 33.5077C8.59563 34.2874 8.2479 34.7275 8.42176 34.0233C8.66517 33.0298 9.08244 32.1496 9.72574 31.2944L10.4038 30.3764L10.1604 29.144C10.0213 28.4775 9.65619 27.4463 9.36062 26.8679C8.49131 25.1702 8.10881 23.0449 8.42176 21.6617C8.52608 21.2215 8.56085 21.1964 8.90858 21.3598C9.58665 21.6868 10.5777 21.8503 11.2383 21.7623C11.6904 21.6994 12.1424 21.4856 12.7683 21.0329C13.2552 20.6682 13.8985 20.2784 14.194 20.1652C15.046 19.8382 15.4806 19.0585 15.5849 17.7255C15.6197 17.0842 15.6023 16.2416 15.5328 15.8392C15.4285 15.1853 15.3241 15.0344 14.6808 14.5943C13.9506 14.0787 11.7078 13.1481 11.2036 13.1481C11.0645 13.1481 9.83875 13.6838 9.43886 14.0736C7.1004 15.2457 7.12648 15.2633 5.63126 16.0681C2.9016 17.5269 3.22325 18.4914 3.34496 19.3465C3.46666 20.2142 3.20587 22.5281 2.82337 24.0623C2.66689 24.6408 2.09314 26.1498 1.53678 27.4199C0.215418 30.4393 -0.0975358 31.7471 0.0241685 33.558C0.0763274 34.3502 0.267577 35.4066 0.476213 35.9725C0.928257 37.2174 2.00621 38.8271 2.87553 39.5187L3.53621 40.0469L5.57041 39.7451C6.70052 39.5816 8.16097 39.3175 8.83903 39.1666L10.0387 38.9025L11.0123 39.1666C13.0987 39.7325 16.9411 39.4433 20.54 38.4373L21.0095 38.2989L20.5053 37.645C19.8967 36.8779 19.6881 36.1234 19.8793 35.4443L20.0184 34.9664L20.2445 35.7964C20.54 36.9408 21.1659 37.7708 22.4873 38.7894L23.6174 39.6445V41.2667C23.6174 42.977 23.9477 44.2597 24.6606 45.4292C25.3039 46.4855 24.9909 48.9 23.8782 51.3774C23.4609 52.3079 23.0784 53.3014 23.0089 53.5781C22.8698 54.2068 22.4351 54.735 38.7261 34.6018C40.8473 31.9861 42.5511 29.8231 42.5163 29.7979C42.4816 29.7728 40.0127 30.0746 37.0223 30.4519C34.0492 30.8417 31.563 31.1309 31.5108 31.0932C31.4586 31.0681 34.5186 27.8362 38.2915 23.9252L45.1765 16.8327L44.707 16.0907C44.0637 15.0721 43.9942 14.1667 44.481 12.8714C44.933 11.6516 44.8809 10.8342 44.2897 9.67728C43.8029 8.73412 42.0643 7.43886 40.6386 6.96099C38.6566 6.29449 35.8748 6.06814 33.8753 6.42025Z" fill="#7977F8"/>
<path d="M8.28274 59.6897C10.4143 59.6897 12.0104 59.9978 13.0727 60.614C14.135 61.2302 14.6653 62.1055 14.6653 63.241C14.6653 63.7503 14.5557 64.2395 14.3367 64.7073C14.1176 65.1764 13.7612 65.5939 13.2674 65.9598C12.7736 66.327 12.1182 66.6163 11.301 66.8301C10.4838 67.0438 9.47892 67.1507 8.28274 67.1507H7.00658V70.8554H2.46354V59.6885H8.28274V59.6897ZM8.17842 62.1269H7.00484V64.6935H7.90198C8.29317 64.6935 8.65654 64.6495 8.99384 64.5602C9.33113 64.4709 9.60062 64.3263 9.80404 64.1251C10.0075 63.9239 10.1083 63.6548 10.1083 63.319C10.1083 62.9832 9.95182 62.6814 9.63713 62.4601C9.32244 62.2388 8.83562 62.1281 8.17668 62.1281L8.17842 62.1269Z" fill="#F0EBEB"/>
<path d="M20.5141 59.6899C22.0389 59.6899 23.3081 59.8132 24.32 60.0609C25.3318 60.3074 26.0934 60.6759 26.6028 61.165C27.1122 61.6542 27.3678 62.2629 27.3678 62.991C27.3678 63.4437 27.253 63.8562 27.0235 64.2284C26.794 64.6006 26.4654 64.9326 26.0395 65.2256C25.6135 65.5186 25.1058 65.7739 24.5164 65.9927L29.4159 70.8582H24.2643L20.7001 66.795H19.5509V70.8582H15.0078V59.6912H20.5158L20.5141 59.6899ZM20.4445 61.9736H19.5474V64.5252H20.3976C21.0948 64.5252 21.6668 64.4233 22.1102 64.2196C22.5552 64.0159 22.7778 63.6525 22.7778 63.1268C22.7778 62.7659 22.5935 62.4829 22.2266 62.2792C21.8581 62.0755 21.2652 61.9736 20.4445 61.9736Z" fill="#F0EBEB"/>
<path d="M29.7268 70.8569V59.6899H34.2924V70.8569H29.7268Z" fill="#F0EBEB"/>
<path d="M42.4694 70.8569L39.0304 62.8137H38.9261C38.9574 63.0224 38.9887 63.3054 39.0234 63.6613C39.0582 64.0171 39.0913 64.4019 39.1208 64.8144C39.1521 65.2269 39.166 65.6243 39.166 66.0066V70.8569H35.1411V59.6899H41.1898L44.6966 67.6187H44.7888L48.2278 59.6899H54.2886V70.8569H50.1142V65.9613C50.1142 65.6105 50.1229 65.2319 50.1437 64.827C50.1629 64.4221 50.1855 64.0398 50.2133 63.6814C50.2394 63.3217 50.2654 63.0388 50.288 62.83H50.1855L46.7934 70.8582H42.4694V70.8569Z" fill="#F0EBEB"/>
<path d="M65.2888 70.8569H55.3073V59.6899H65.2888V62.1107H59.8486V63.8675H64.8854V66.2883H59.8486V68.3959H65.2888V70.8557V70.8569Z" fill="#F0EBEB"/>
<path d="M68.5316 35.823L80.217 37.561L79.9701 41.7121L77.4352 41.3348L77.5708 39.0662L75.3419 38.7393L75.2167 40.8381L72.6678 40.4508L72.793 38.3419L68.4204 37.7043L68.5316 35.8218V35.823Z" fill="#F0EBEB"/>
<path d="M68.5316 41.0017L80.217 42.7396L80.1057 44.6222L68.4204 42.8842L68.5334 41.0017H68.5316Z" fill="#F0EBEB"/>
<path d="M68.4847 45.5664L77.59 46.9019L77.6804 45.3752L80.2622 45.7626L79.9684 50.7135L77.3883 50.3161L77.4804 48.7844L68.3752 47.4489L68.4865 45.5664H68.4847Z" fill="#F0EBEB"/>
<path d="M68.6586 49.4524L80.344 51.1903L80.2136 53.381L72.2159 54.5907L72.2124 54.6335C72.4471 54.6548 72.7462 54.6838 73.1095 54.7228C73.4729 54.7617 73.8415 54.8032 74.2153 54.8472C74.5891 54.8925 74.9125 54.934 75.1837 54.9717L80.0745 55.7074L79.9754 57.3837L68.2901 55.6458L68.4205 53.4551L76.7815 52.2391V52.2001C76.6772 52.1938 76.4947 52.1813 76.2339 52.1599C75.9748 52.1385 75.6792 52.1108 75.3472 52.0781C75.0168 52.0454 74.6813 52.0102 74.3422 51.9725C74.0032 51.9348 73.7007 51.8945 73.4347 51.8543L68.5595 51.1287L68.6586 49.4537V49.4524Z" fill="#F0EBEB"/>
<path d="M68.5992 56.4893L80.2846 58.2272L80.036 62.4072L77.501 62.04L77.6367 59.7438L75.7989 59.4784L75.672 61.6163L73.1405 61.2151L73.2675 59.0773L71.0611 58.7554L70.9255 61.0529L68.3524 60.6706L68.601 56.4905L68.5992 56.4893Z" fill="#F0EBEB"/>
<path d="M68.3091 63.26C68.33 62.9091 68.4169 62.5784 68.5699 62.264C68.7229 61.9509 68.9298 61.683 69.1906 61.4604L72.0089 61.5208C71.7307 61.7723 71.4786 62.0704 71.2543 62.4137C71.0301 62.7582 70.9084 63.0764 70.891 63.3732C70.884 63.4914 70.8997 63.597 70.9362 63.6876C70.9727 63.7781 71.0301 63.8548 71.1083 63.9177C71.1848 63.9806 71.2839 64.0284 71.4021 64.061C71.5204 64.0937 71.656 64.1113 71.8072 64.1151C72.0054 64.1189 72.1932 64.0875 72.3688 64.0208C72.5444 63.9542 72.72 63.8624 72.8974 63.7454C73.0747 63.6285 73.2659 63.5002 73.4728 63.3606C73.7806 63.1518 74.1005 62.9695 74.4326 62.8148C74.7646 62.6589 75.1263 62.5419 75.514 62.4615C75.9034 62.381 76.3364 62.347 76.8145 62.3571C77.3465 62.3684 77.8316 62.4388 78.2697 62.5658C78.7096 62.6941 79.0869 62.8714 79.4033 63.099C79.7215 63.3254 79.9597 63.5945 80.1214 63.9051C80.2831 64.2157 80.3526 64.5565 80.33 64.9288C80.3074 65.3073 80.2118 65.6732 80.0397 66.0241C79.8675 66.3749 79.6363 66.6943 79.3459 66.9811L76.9936 66.2806C77.1953 66.0605 77.3743 65.8279 77.5308 65.5852C77.6873 65.3425 77.7725 65.1123 77.7864 64.8935C77.7951 64.759 77.7725 64.6483 77.7221 64.5641C77.6699 64.4798 77.6021 64.4132 77.5152 64.3666C77.4282 64.3201 77.3361 64.2861 77.2352 64.2673C77.1344 64.2472 77.0353 64.2358 76.9397 64.2346C76.7728 64.2308 76.6111 64.2497 76.4563 64.2899C76.2999 64.3302 76.126 64.4044 75.9347 64.5125C75.7435 64.6207 75.5123 64.7753 75.2428 64.9753C74.9055 65.228 74.5647 65.4343 74.2222 65.5927C73.8797 65.7499 73.5215 65.8644 73.1495 65.9335C72.7774 66.0027 72.3706 66.0329 71.9307 66.0228C71.3448 66.0102 70.8232 65.9398 70.3624 65.8115C69.9017 65.6833 69.5157 65.5009 69.201 65.2658C68.8863 65.0306 68.6534 64.7451 68.5021 64.4094C68.3508 64.0736 68.2865 63.6913 68.3126 63.2613L68.3091 63.26Z" fill="#F0EBEB"/>
<path d="M67.7613 68.28C67.7821 67.9292 67.8691 67.5984 68.0221 67.284C68.1751 66.9709 68.382 66.7031 68.6428 66.4805L71.4611 66.5408C71.1829 66.7911 70.9308 67.0904 70.7065 67.4337C70.4822 67.7783 70.3605 68.0964 70.3432 68.3919C70.3362 68.5101 70.3518 68.6158 70.3884 68.7063C70.4249 68.7969 70.484 68.8736 70.5605 68.9365C70.637 68.9993 70.7361 69.0471 70.8543 69.0798C70.9725 69.1125 71.1082 69.1301 71.2577 69.1339C71.4559 69.1377 71.6436 69.1062 71.8193 69.0396C71.9949 68.9729 72.1705 68.8811 72.3478 68.7642C72.5251 68.6472 72.7164 68.5189 72.9233 68.3794C73.231 68.1706 73.5509 67.9883 73.883 67.8336C74.2151 67.6776 74.575 67.5607 74.9644 67.4802C75.3539 67.3997 75.7868 67.3658 76.2649 67.3758C76.797 67.3872 77.282 67.4563 77.7202 67.5846C78.16 67.7129 78.5373 67.8902 78.8538 68.1178C79.1719 68.3441 79.4101 68.6133 79.5718 68.9239C79.7335 69.2345 79.8031 69.5753 79.7804 69.9475C79.7578 70.326 79.6622 70.692 79.4901 71.0428C79.318 71.3937 79.0867 71.7131 78.7964 71.9998L76.444 71.2994C76.6457 71.0793 76.8248 70.8467 76.9812 70.604C77.1377 70.3612 77.2229 70.1311 77.2368 69.9123C77.2455 69.7777 77.2229 69.6671 77.1725 69.5828C77.1203 69.4986 77.0525 69.4332 76.9656 69.3854C76.8787 69.3376 76.7865 69.3049 76.6857 69.286C76.5848 69.2659 76.4857 69.2546 76.3901 69.2534C76.2232 69.2496 76.0633 69.2684 75.9068 69.3087C75.7503 69.3489 75.5764 69.4231 75.3852 69.5313C75.1939 69.6394 74.9627 69.7941 74.6932 69.994C74.3559 70.2468 74.0151 70.453 73.6726 70.6102C73.3301 70.7687 72.972 70.8819 72.5999 70.9523C72.2278 71.0215 71.821 71.0516 71.3811 71.0416C70.7952 71.029 70.2736 70.9586 69.8129 70.8303C69.3521 70.702 68.9662 70.5197 68.6515 70.2845C68.3368 70.0494 68.1055 69.7639 67.9525 69.4281C67.8013 69.0924 67.7369 68.7101 67.763 68.28H67.7613Z" fill="#7977F8"/>
</svg>
